# xmcd
#
# Track frame offsets:
#	150
#	18025
#	36969
#	56595
#	93284
#	110435
#	149630
#	166387
#	186946
#	213532
#
# Disc length: 3088 seconds
#
# Revision: 1
# Processed by: cddbd v1.4PL0 Copyright (c) Steve Scherf et al.
# Submitted via: audiograbber 1.81.03
#
DISCID=8a0c0e0a
DTITLE=L.A. Jones and the Blues Messengers - Birthday Suit
DYEAR=2002
DGENRE=Blues
TTITLE0=She Can't Not Be Satisfied
TTITLE1=Got My Ax To Grind
TTITLE2=The Blues Is Brewing
TTITLE3=How Blue Can You Get
TTITLE4=Smokin' Drinkin' Woman
TTITLE5=Birthday Suit
TTITLE6=Off The Edge Of The Earth
TTITLE7=I Got A Rap Sheet On You
TTITLE8=Tumblin Tumbleweed
TTITLE9=Little Queen Of Hearts
EXTD=
EXTT0=
EXTT1=
EXTT2=
EXTT3=
EXTT4=
EXTT5=
EXTT6=
EXTT7=
EXTT8=
EXTT9=
PLAYORDER=
